HIERARCHY
ROOT Hips
{
	OFFSET 0.000000 0.000000 0.000000
	CHANNELS 6 Xposition Yposition Zposition Zrotation Yrotation Xrotation 
	JOINT LHipJoint
	{
		OFFSET 0.000000 0.000000 0.000000
		CHANNELS 3 Zrotation Yrotation Xrotation
		JOINT LeftUpLeg
		{
			OFFSET 1.363060 -1.794630 0.839290
			CHANNELS 3 Zrotation Yrotation Xrotation
			JOINT LeftLeg
			{
				OFFSET 2.448110 -6.726130 0.000000
				CHANNELS 3 Zrotation Yrotation Xrotation
				JOINT LeftFoot
				{
					OFFSET 2.562200 -7.039590 0.000000
					CHANNELS 3 Zrotation Yrotation Xrotation
					JOINT LeftToeBase
					{
						OFFSET 0.157640 -0.433110 2.322550
						CHANNELS 3 Zrotation Yrotation Xrotation
						End Site
						{
							OFFSET 0.000000 0.000000 0.000000
						}
					}
				}
			}
		}
	}
	JOINT RHipJoint
	{
		OFFSET 0.000000 0.000000 0.000000
		CHANNELS 3 Zrotation Yrotation Xrotation
		JOINT RightUpLeg
		{
			OFFSET -1.305520 -1.794630 0.839290
			CHANNELS 3 Zrotation Yrotation Xrotation
			JOINT RightLeg
			{
				OFFSET -2.542530 -6.985550 0.000000
				CHANNELS 3 Zrotation Yrotation Xrotation
				JOINT RightFoot
				{
					OFFSET -2.568260 -7.056230 0.000000
					CHANNELS 3 Zrotation Yrotation Xrotation
					JOINT RightToeBase
					{
						OFFSET -0.164730 -0.452590 2.363150
						CHANNELS 3 Zrotation Yrotation Xrotation
						End Site
						{
							OFFSET 0.000000 0.000000 0.000000
						}
					}
				}
			}
		}
	}
}
MOTION
Frames: 19
Frame Time: 0.008333
10.504767 19.417726 1.708619 18.356722 -85.567670 7.415025 -11.369381 1.324554 1.668615 -5.483215 -2.158266 -26.635579 0.525122 0.817119 30.640296 2.735435 14.419361 35.445554 8.927700 -0.000000 -60.749000 10.685745 -1.318445 -1.546913 5.269039 -10.862825 -24.102849 0.481003 -1.763836 26.506103 -1.356910 -0.426552 39.901862 0.110999 0.000000 -79.933799
10.338016 19.597414 1.698466 18.707043 -85.667085 7.238142 -11.325937 1.275643 1.724990 -5.543326 -2.486768 -27.377368 0.533571 0.848690 31.158106 2.717283 14.610878 34.211607 8.871500 -0.000000 -59.672200 10.661050 -1.280271 -1.429776 5.264378 -10.447171 -24.699367 0.494033 -1.766521 26.261327 -1.307284 -0.699710 38.847554 -0.110300 0.000000 -79.631700
10.176180 19.765428 1.688501 19.085384 -85.723890 7.035547 -11.279224 1.223245 1.752968 -5.658754 -2.727458 -28.252224 0.529206 0.897234 31.830418 2.683436 14.677509 32.720984 8.682601 0.000000 -58.896300 10.635465 -1.232028 -1.343878 5.275332 -10.143351 -25.377272 0.521294 -1.779353 26.083829 -1.247197 -1.018873 37.463745 -0.362100 -0.000000 -79.429900
10.019119 19.922414 1.679102 19.377197 -85.741358 6.914133 -11.233330 1.164636 1.751797 -5.815059 -2.868623 -29.211277 0.512761 0.955591 32.555307 2.637929 14.603396 31.201454 8.393100 0.000000 -58.465700 10.607033 -1.173987 -1.293224 5.313265 -9.969007 -26.096989 0.567109 -1.794827 25.896710 -1.183201 -1.351574 35.940766 -0.617900 0.000001 -79.433201
9.866590 20.068951 1.670598 19.496119 -85.725317 6.955470 -11.191436 1.099044 1.722998 -6.002484 -2.904328 -30.217352 0.485372 1.018180 33.243879 2.582390 14.377753 29.829163 8.034400 0.000000 -58.207400 10.574266 -1.107666 -1.279588 5.388987 -9.935801 -26.839303 0.634567 -1.809393 25.660780 -1.117505 -1.656337 34.401089 -0.847699 -0.000000 -79.318901
9.718300 20.205416 1.663139 19.389197 -85.684382 7.212274 -11.155488 1.025581 1.669227 -6.211601 -2.840362 -31.236179 0.449076 1.079442 33.811520 2.519756 14.015603 28.753215 7.648500 -0.000000 -58.197300 10.535175 -1.034519 -1.300209 5.512801 -10.029308 -27.584715 0.723048 -1.818457 25.328846 -1.055535 -1.940309 32.965942 -1.057400 -0.000000 -79.278800
9.573537 20.332229 1.656823 19.047483 -85.627879 7.699796 -11.126266 0.945697 1.595318 -6.437931 -2.686059 -32.245628 0.405011 1.135411 34.195011 2.451124 13.530494 28.046637 7.259701 -0.000000 -58.319200 10.488867 -0.957336 -1.350400 5.691710 -10.232988 -28.331177 0.831896 -1.820922 24.891429 -0.997320 -2.193582 31.672350 -1.242401 -0.000000 -79.080600
9.431656 20.449487 1.651545 18.490495 -85.565062 8.404776 -11.103302 0.860575 1.505747 -6.678394 -2.456502 -33.227585 0.353831 1.182799 34.345162 2.378581 12.948052 27.737759 6.886100 -0.000000 -58.629300 10.434409 -0.878166 -1.422362 5.928508 -10.512277 -29.072866 0.957990 -1.814269 24.331388 -0.945626 -2.439709 30.552632 -1.419800 -0.000000 -78.963400
9.291824 20.557075 1.647207 17.754960 -85.503512 9.296884 -11.085397 0.772835 1.406246 -6.933493 -2.167504 -34.173962 0.294918 1.219960 34.236646 2.302683 12.287943 27.787013 6.527600 0.000001 -59.036099 10.371638 -0.799596 -1.508435 6.223289 -10.839700 -29.818687 1.100083 -1.799128 23.667664 -0.897431 -2.669998 29.561265 -1.585400 0.000000 -78.746200
9.153184 20.654856 1.643491 16.906295 -85.448603 10.319911 -11.070584 0.684981 1.301623 -7.206269 -1.837683 -35.080272 0.227190 1.245917 33.858867 2.224225 11.575139 28.125912 6.180900 -0.000000 -59.563200 10.300998 -0.723176 -1.598641 6.569607 -11.178008 -30.571471 1.255245 -1.774096 22.905423 -0.852865 -2.896321 28.672900 -1.747199 -0.000000 -78.611900
9.014872 20.742539 1.640173 15.999777 -85.401879 11.424214 -11.056943 0.600161 1.197205 -7.500719 -1.484637 -35.949408 0.149062 1.261193 33.222339 2.142300 10.827858 28.648691 5.835500 0.000000 -60.136400 10.223365 -0.650571 -1.685081 6.959811 -11.504484 -31.343584 1.422959 -1.740459 22.077595 -0.807283 -3.095096 27.815208 -1.890900 0.000000 -78.420100
8.876348 20.819726 1.636937 15.109674 -85.362113 12.537621 -11.041985 0.520859 1.096865 -7.822744 -1.127706 -36.784666 0.059196 1.266662 32.346649 2.056111 10.069312 29.251840 5.487900 -0.000000 -60.780899 10.140403 -0.581755 -1.760097 7.380633 -11.796839 -32.141052 1.601282 -1.698074 21.201403 -0.759082 -3.255339 26.958015 -2.009800 -0.000000 -78.311800
8.736906 20.886154 1.633540 14.293090 -85.324870 13.606449 -11.023772 0.449837 1.004686 -8.176906 -0.783749 -37.594376 -0.043831 1.263913 31.265352 1.963603 9.315508 29.828257 5.134200 0.000000 -61.422100 10.054162 -0.516984 -1.818999 7.820466 -12.048741 -32.974094 1.790038 -1.648673 20.308307 -0.703656 -3.340789 26.062491 -2.082900 -0.000000 -78.169700
8.596396 20.941508 1.629833 13.597073 -85.284337 14.579115 -11.000441 0.388721 0.923140 -8.566661 -0.467243 -38.384410 -0.161244 1.254418 30.015598 1.863041 8.581516 30.294457 4.777301 -0.000000 -62.001399 9.966884 -0.455286 -1.860026 8.267512 -12.262311 -33.847977 1.988296 -1.593970 19.420328 -0.637917 -3.321520 25.128244 -2.094600 -0.000000 -77.992499
8.454641 20.985808 1.625655 13.065161 -85.234368 15.408951 -10.970321 0.337919 0.854420 -8.992341 -0.192814 -39.156751 -0.293578 1.238166 28.627814 1.754790 7.888824 30.612605 4.430500 0.000000 -62.627600 9.881198 -0.395153 -1.883853 8.711129 -12.445506 -34.762893 2.193947 -1.535432 18.547594 -0.560697 -3.180835 24.194760 -2.039000 -0.000000 -77.948300
8.311751 21.019116 1.621122 12.690614 -85.169178 16.094811 -10.933037 0.297456 0.799478 -9.453325 0.037384 -39.920264 -0.442174 1.216211 27.146319 1.637517 7.234912 30.748467 4.093800 -0.000000 -63.070501 9.798611 -0.336149 -1.894134 9.149039 -12.617572 -35.722937 2.406182 -1.476705 17.712508 -0.468614 -2.891898 23.294143 -1.905800 0.000000 -77.850200
8.168223 21.041465 1.616249 12.464627 -85.086520 16.634585 -10.888578 0.263948 0.756212 -9.941378 0.216879 -40.660152 -0.605835 1.186104 25.581543 1.515469 6.641294 30.748094 3.787400 -0.000000 -63.507100 9.720572 -0.276208 -1.898007 9.576205 -12.789381 -36.709800 2.620633 -1.418937 16.902483 -0.364143 -2.470023 22.513589 -1.708400 -0.000000 -77.887900
8.024116 21.052726 1.611262 12.345215 -84.985075 17.065100 -10.838023 0.236103 0.724086 -10.454345 0.356747 -41.388374 -0.784800 1.148316 23.974312 1.388883 6.091984 30.628910 3.504300 0.000000 -63.695500 9.647290 -0.216091 -1.899183 9.998369 -12.975516 -37.726061 2.835161 -1.365696 16.132768 -0.247155 -1.919333 21.895103 -1.451400 0.000000 -77.931600
7.880067 21.053267 1.606313 12.287554 -84.867578 17.420598 -10.782725 0.209707 0.699628 -10.983773 0.460750 -42.094189 -0.975983 1.100734 22.331156 1.262864 5.596961 30.468010 3.255500 -0.000000 -63.819300 9.578504 -0.154639 -1.903269 10.415744 -13.176885 -38.754992 3.044809 -1.317861 15.391590 -0.122751 -1.277881 21.500109 -1.154200 -0.000000 -78.108600
